<?xml version="1.0" standalone="no"?><!DOCTYPE svg PUBLIC "-//W3C//DTD SVG 1.1//EN" "http://www.w3.org/Graphics/SVG/1.1/DTD/svg11.dtd"><svg t="1758156167552" class="icon" viewBox="0 0 1024 1024" version="1.1" xmlns="http://www.w3.org/2000/svg" p-id="5318" xmlns:xlink="http://www.w3.org/1999/xlink" width="200" height="200"><path d="M326.4 301.4784h460.8a64 64 0 0 1 64 64v371.2a64 64 0 0 1-64 64H364.8c-106.0352 0-192-85.9648-192-192v-153.6c0-84.8384 68.7744-153.6 153.6-153.6z" fill="#CAF0EC" p-id="5319"></path><path d="M774.656 800.6784H364.8c-54.7584 0-104.1664-22.9248-139.136-59.6992-10.9184-31.3344-15.6544-47.7184-14.208-49.1264 2.56-2.5344 79.36-102.784 230.4-300.7744 15.2064 174.976 32.2688 281.6512 51.2 320 18.9184 38.3488 112.7936 68.224 281.6 89.6z" fill="#9EE1DA" p-id="5320"></path><path d="M326.4 312.0384c-79.0016 0-143.04 64.0384-143.04 143.04v153.6c0 100.1984 81.2288 181.44 181.44 181.44h422.4a53.44 53.44 0 0 0 53.44-53.44v-371.2A53.44 53.44 0 0 0 787.2 312.0384H326.4z m0-21.12h460.8a74.56 74.56 0 0 1 74.56 74.56v371.2A74.56 74.56 0 0 1 787.2 811.2384H364.8c-111.872 0-202.56-90.688-202.56-202.56v-153.6C162.24 364.416 235.7376 290.9184 326.4 290.9184z" fill="#00AC9A" p-id="5321"></path><path d="M576 624.6784l-41.3824 21.76 7.9104-46.08-33.4848-32.64 46.272-6.72 20.6848-41.92 20.6848 41.92 46.272 6.72-33.4848 32.64 7.9104 46.08zM744.2176 443.7376l-27.904-10.304 25.152-15.8848 1.1776-29.7344 22.8864 19.0208 28.6336-8.064-11.008 27.6352 16.512 24.7424-29.696-1.9456-18.4192 23.36z" fill="#FFFFFF" p-id="5322"></path><path d="M300.8 224.6784c70.6944 0 128 45.312 128 101.2096v360.7808c0 55.8976-57.3056 101.2096-128 101.2096s-128-45.312-128-101.2096V325.888c0-55.8976 57.3056-101.2096 128-101.2096z" fill="#F6FFFE" p-id="5323"></path><path d="M397.568 259.6352C417.024 277.376 428.8 300.544 428.8 325.888v324.6592l-39.8592-29.0688 8.512-339.6224 0.1152-22.2208z" fill="#00AC9A" opacity=".217" p-id="5324"></path><path d="M300.8 224.6784c-70.6944 0-128 45.312-128 101.2096v360.7808c0 55.8976 57.3056 101.2096 128 101.2096s128-45.312 128-101.2096V325.888c0-55.8976-57.3056-101.2096-128-101.2096z m0-19.2c80.4352 0 147.2 52.7872 147.2 120.4096v360.7808c0 67.6224-66.7648 120.4096-147.2 120.4096S153.6 754.2912 153.6 686.6688V325.888C153.6 258.2656 220.3648 205.4784 300.8 205.4784z" fill="#00AC9A" p-id="5325"></path><path d="M172.8 685.4784a128 102.4 0 1 0 256 0 128 102.4 0 1 0-256 0Z" fill="#CAF0EC" p-id="5326"></path><path d="M300.8 787.8784c70.6944 0 128-45.8496 128-102.4 0-56.5632-57.3056-102.4-128-102.4s-128 45.8368-128 102.4c0 56.5504 57.3056 102.4 128 102.4z m0 21.12c-81.4464 0-149.12-54.144-149.12-123.52s67.6736-123.52 149.12-123.52 149.12 54.144 149.12 123.52-67.6736 123.52-149.12 123.52z" fill="#00AC9A" p-id="5327"></path><path d="M300.8 759.0784a9.6 9.6 0 0 1 0-19.2c44.7488 0 80-25.1904 80-54.4 0-29.2224-35.2512-54.4-80-54.4s-80 25.1776-80 54.4a9.6 9.6 0 0 1-19.2 0c0-41.472 44.9792-73.6 99.2-73.6 54.2208 0 99.2 32.128 99.2 73.6s-44.9792 73.6-99.2 73.6z" fill="#00AC9A" p-id="5328"></path><path d="M300.8 650.2784a9.6 9.6 0 1 1 0 19.2c-16.5376 0-28.8 8.1792-28.8 16 0 7.808 12.2624 16 28.8 16s28.8-8.192 28.8-16a9.6 9.6 0 1 1 19.2 0c0 20.4544-22.1184 35.2-48 35.2-25.8816 0-48-14.7456-48-35.2s22.1184-35.2 48-35.2z" fill="#00AC9A" p-id="5329"></path><path d="M309.0176 379.7376l-27.904-10.304 25.152-15.8848 1.1776-29.7344 22.8864 19.0208 28.6336-8.064-11.008 27.6352 16.512 24.7424-29.696-1.9456-18.4192 23.36z" fill="#CAF0EC" p-id="5330"></path><path d="M573.0176 619.008a6.4 6.4 0 0 1 5.9648 0l29.9008 15.7184-5.7088-33.28a6.4 6.4 0 0 1 1.8304-5.6832l24.192-23.5776-33.4208-4.864a6.4 6.4 0 0 1-4.8256-3.4944L576 533.5424l-14.9504 30.2848a6.4 6.4 0 0 1-4.8256 3.5072l-33.4208 4.864 24.192 23.5648a6.4 6.4 0 0 1 1.8304 5.6704l-5.7088 33.2928 29.9008-15.7184z m2.9824 12.9024l-38.4 20.1856a6.4 6.4 0 0 1-9.2928-6.7456l7.3344-42.752-31.0656-30.2976a6.4 6.4 0 0 1 3.5456-10.9184l42.944-6.2336 19.2-38.912a6.4 6.4 0 0 1 11.4688 0l19.2 38.912 42.944 6.2336a6.4 6.4 0 0 1 3.5456 10.9184l-31.0656 30.2848 7.3344 42.752a6.4 6.4 0 0 1-9.2928 6.7584l-38.4-20.1856zM743.2704 436.3136a6.4 6.4 0 0 1 3.9808 4.4288l4.1344 16.256 10.3936-13.1712a6.4 6.4 0 0 1 5.44-2.4192l16.7552 1.088-9.3184-13.952a6.4 6.4 0 0 1-0.6272-5.9264l6.208-15.5904-16.1536 4.5568a6.4 6.4 0 0 1-5.824-1.2416l-12.9024-10.7264-0.6656 16.768a6.4 6.4 0 0 1-2.9824 5.1584l-14.1824 8.96 15.744 5.8112z m-32.3456 1.7024a6.4 6.4 0 0 1-1.2032-11.4176l22.3104-14.08 1.0496-26.368a6.4 6.4 0 0 1 10.4832-4.672l20.288 16.8704 25.3952-7.1552a6.4 6.4 0 0 1 7.68 8.5248l-9.7664 24.512 14.656 21.952a6.4 6.4 0 0 1-5.7344 9.9328l-26.3296-1.7152-16.3456 20.7104a6.4 6.4 0 0 1-11.2256-2.3808l-6.5024-25.5744-24.7552-9.1392zM308.0704 372.3136a6.4 6.4 0 0 1 3.9808 4.4288l4.1344 16.256 10.3936-13.1712a6.4 6.4 0 0 1 5.44-2.4192l16.7552 1.088-9.3184-13.952a6.4 6.4 0 0 1-0.6272-5.9264l6.208-15.5904-16.1536 4.5568a6.4 6.4 0 0 1-5.824-1.2416l-12.9024-10.7264-0.6656 16.768a6.4 6.4 0 0 1-2.9824 5.1584l-14.1824 8.96 15.744 5.8112z m-32.3456 1.7024a6.4 6.4 0 0 1-1.2032-11.4176l22.3104-14.08 1.0496-26.368a6.4 6.4 0 0 1 10.4832-4.672l20.288 16.8704 25.3952-7.1552a6.4 6.4 0 0 1 7.68 8.5248l-9.7664 24.512 14.656 21.952a6.4 6.4 0 0 1-5.7344 9.9328l-26.3296-1.7152-16.3456 20.7104a6.4 6.4 0 0 1-11.2256-2.3808l-6.5024-25.5744-24.7552-9.1392z" fill="#00AC9A" p-id="5331"></path></svg>